<mxfile host="app.diagrams.net" modified="2023-04-20T22:02:09.960Z" agent="Mozilla/5.0 (Windows NT 10.0; Win64; x64) AppleWebKit/537.36 (KHTML, like Gecko) Chrome/112.0.0.0 Safari/537.36 Edg/112.0.1722.48" etag="52hybbx_ROQgPzPvWlhf" version="21.1.7" type="device">
  <diagram name="HangmanGame" id="ttvLW0Hn7JGoDwHIPGYA">
    <mxGraphModel dx="943" dy="1676" grid="1" gridSize="10" guides="1" tooltips="1" connect="1" arrows="1" fold="1" page="1" pageScale="1" pageWidth="827" pageHeight="1169" math="0" shadow="0">
      <root>
        <mxCell id="0" />
        <mxCell id="1" parent="0" />
        <mxCell id="knpWnB1zfSN1dkLnq7b6-10" value="" style="edgeStyle=orthogonalEdgeStyle;rounded=0;orthogonalLoop=1;jettySize=auto;html=1;" edge="1" parent="1" source="knpWnB1zfSN1dkLnq7b6-3">
          <mxGeometry relative="1" as="geometry">
            <mxPoint x="532" y="-1000" as="targetPoint" />
          </mxGeometry>
        </mxCell>
        <mxCell id="knpWnB1zfSN1dkLnq7b6-3" value="&lt;b&gt;START&lt;/b&gt;" style="rounded=1;whiteSpace=wrap;html=1;" vertex="1" parent="1">
          <mxGeometry x="464" y="-1080" width="136" height="60" as="geometry" />
        </mxCell>
        <mxCell id="knpWnB1zfSN1dkLnq7b6-27" value="&lt;h1&gt;&lt;u&gt;Hangman Game&lt;/u&gt;&lt;/h1&gt;" style="text;html=1;strokeColor=none;fillColor=none;spacing=5;spacingTop=-20;whiteSpace=wrap;overflow=hidden;rounded=0;align=center;" vertex="1" parent="1">
          <mxGeometry x="320" y="-1150" width="270" height="50" as="geometry" />
        </mxCell>
        <mxCell id="knpWnB1zfSN1dkLnq7b6-29" value="" style="shape=internalStorage;whiteSpace=wrap;html=1;backgroundOutline=1;dx=110;dy=20;" vertex="1" parent="1">
          <mxGeometry x="40" y="-1080" width="290" height="150" as="geometry" />
        </mxCell>
        <mxCell id="knpWnB1zfSN1dkLnq7b6-18" value="cont" style="text;align=center;verticalAlign=middle;spacingLeft=4;spacingRight=4;overflow=hidden;points=[[0,0.5],[1,0.5]];portConstraint=eastwest;rotatable=0;whiteSpace=wrap;html=1;" vertex="1" parent="1">
          <mxGeometry x="40" y="-1060" width="110" height="20" as="geometry" />
        </mxCell>
        <mxCell id="knpWnB1zfSN1dkLnq7b6-30" value="&lt;b&gt;Variáveis&lt;/b&gt;" style="text;align=center;verticalAlign=middle;spacingLeft=4;spacingRight=4;overflow=hidden;points=[[0,0.5],[1,0.5]];portConstraint=eastwest;rotatable=0;whiteSpace=wrap;html=1;" vertex="1" parent="1">
          <mxGeometry x="40" y="-1080" width="110" height="20" as="geometry" />
        </mxCell>
        <mxCell id="knpWnB1zfSN1dkLnq7b6-31" value="&lt;b&gt;Descrição&lt;/b&gt;" style="text;align=center;verticalAlign=middle;spacingLeft=4;spacingRight=4;overflow=hidden;points=[[0,0.5],[1,0.5]];portConstraint=eastwest;rotatable=0;whiteSpace=wrap;html=1;" vertex="1" parent="1">
          <mxGeometry x="150" y="-1080" width="180" height="20" as="geometry" />
        </mxCell>
        <mxCell id="knpWnB1zfSN1dkLnq7b6-32" value="&lt;font style=&quot;font-size: 10px;&quot;&gt;contador de tentativas&lt;/font&gt;" style="text;align=center;verticalAlign=middle;spacingLeft=4;spacingRight=4;overflow=hidden;points=[[0,0.5],[1,0.5]];portConstraint=eastwest;rotatable=0;whiteSpace=wrap;html=1;" vertex="1" parent="1">
          <mxGeometry x="150" y="-1060" width="180" height="20" as="geometry" />
        </mxCell>
        <mxCell id="knpWnB1zfSN1dkLnq7b6-33" value="word_list" style="text;align=center;verticalAlign=middle;spacingLeft=4;spacingRight=4;overflow=hidden;points=[[0,0.5],[1,0.5]];portConstraint=eastwest;rotatable=0;whiteSpace=wrap;html=1;" vertex="1" parent="1">
          <mxGeometry x="40" y="-1040" width="110" height="20" as="geometry" />
        </mxCell>
        <mxCell id="knpWnB1zfSN1dkLnq7b6-34" value="&lt;font style=&quot;font-size: 10px;&quot;&gt;lista de palavras Hangman&lt;/font&gt;" style="text;align=center;verticalAlign=middle;spacingLeft=4;spacingRight=4;overflow=hidden;points=[[0,0.5],[1,0.5]];portConstraint=eastwest;rotatable=0;whiteSpace=wrap;html=1;" vertex="1" parent="1">
          <mxGeometry x="150" y="-1040" width="180" height="20" as="geometry" />
        </mxCell>
        <mxCell id="knpWnB1zfSN1dkLnq7b6-35" value="chosen_word" style="text;align=center;verticalAlign=middle;spacingLeft=4;spacingRight=4;overflow=hidden;points=[[0,0.5],[1,0.5]];portConstraint=eastwest;rotatable=0;whiteSpace=wrap;html=1;" vertex="1" parent="1">
          <mxGeometry x="40" y="-1020" width="110" height="20" as="geometry" />
        </mxCell>
        <mxCell id="knpWnB1zfSN1dkLnq7b6-38" value="&lt;font style=&quot;font-size: 10px;&quot;&gt;palavra a ser descoberta no jogo&lt;/font&gt;" style="text;align=center;verticalAlign=middle;spacingLeft=4;spacingRight=4;overflow=hidden;points=[[0,0.5],[1,0.5]];portConstraint=eastwest;rotatable=0;whiteSpace=wrap;html=1;" vertex="1" parent="1">
          <mxGeometry x="150" y="-1020" width="180" height="20" as="geometry" />
        </mxCell>
        <mxCell id="knpWnB1zfSN1dkLnq7b6-39" value="draw_word" style="text;align=center;verticalAlign=middle;spacingLeft=4;spacingRight=4;overflow=hidden;points=[[0,0.5],[1,0.5]];portConstraint=eastwest;rotatable=0;whiteSpace=wrap;html=1;" vertex="1" parent="1">
          <mxGeometry x="40" y="-1000" width="110" height="20" as="geometry" />
        </mxCell>
        <mxCell id="knpWnB1zfSN1dkLnq7b6-40" value="&lt;font style=&quot;font-size: 10px;&quot;&gt;sequencia de &quot;_&quot; com a palavra oculta&lt;/font&gt;" style="text;align=center;verticalAlign=middle;spacingLeft=4;spacingRight=4;overflow=hidden;points=[[0,0.5],[1,0.5]];portConstraint=eastwest;rotatable=0;whiteSpace=wrap;html=1;" vertex="1" parent="1">
          <mxGeometry x="150" y="-1000" width="180" height="20" as="geometry" />
        </mxCell>
        <mxCell id="knpWnB1zfSN1dkLnq7b6-41" value="guess" style="text;align=center;verticalAlign=middle;spacingLeft=4;spacingRight=4;overflow=hidden;points=[[0,0.5],[1,0.5]];portConstraint=eastwest;rotatable=0;whiteSpace=wrap;html=1;" vertex="1" parent="1">
          <mxGeometry x="40" y="-980" width="110" height="20" as="geometry" />
        </mxCell>
        <mxCell id="knpWnB1zfSN1dkLnq7b6-42" value="&lt;font style=&quot;font-size: 10px;&quot;&gt;guess letter&lt;/font&gt;" style="text;align=center;verticalAlign=middle;spacingLeft=4;spacingRight=4;overflow=hidden;points=[[0,0.5],[1,0.5]];portConstraint=eastwest;rotatable=0;whiteSpace=wrap;html=1;" vertex="1" parent="1">
          <mxGeometry x="150" y="-980" width="180" height="20" as="geometry" />
        </mxCell>
        <mxCell id="knpWnB1zfSN1dkLnq7b6-43" value="" style="shape=internalStorage;whiteSpace=wrap;html=1;backgroundOutline=1;dx=110;dy=20;fillColor=#f5f5f5;strokeColor=#666666;fontColor=#333333;" vertex="1" parent="1">
          <mxGeometry x="40" y="-910" width="290" height="150" as="geometry" />
        </mxCell>
        <mxCell id="knpWnB1zfSN1dkLnq7b6-44" value="check_lettters" style="text;strokeColor=#666666;fillColor=#f5f5f5;align=center;verticalAlign=middle;spacingLeft=4;spacingRight=4;overflow=hidden;points=[[0,0.5],[1,0.5]];portConstraint=eastwest;rotatable=0;whiteSpace=wrap;html=1;fontColor=#333333;" vertex="1" parent="1">
          <mxGeometry x="40" y="-890" width="110" height="20" as="geometry" />
        </mxCell>
        <mxCell id="knpWnB1zfSN1dkLnq7b6-45" value="&lt;b&gt;Funções&lt;/b&gt;" style="text;strokeColor=#666666;fillColor=#f5f5f5;align=center;verticalAlign=middle;spacingLeft=4;spacingRight=4;overflow=hidden;points=[[0,0.5],[1,0.5]];portConstraint=eastwest;rotatable=0;whiteSpace=wrap;html=1;fontColor=#333333;" vertex="1" parent="1">
          <mxGeometry x="40" y="-910" width="110" height="20" as="geometry" />
        </mxCell>
        <mxCell id="knpWnB1zfSN1dkLnq7b6-46" value="&lt;b&gt;Descrição&lt;/b&gt;" style="text;strokeColor=#666666;fillColor=#f5f5f5;align=center;verticalAlign=middle;spacingLeft=4;spacingRight=4;overflow=hidden;points=[[0,0.5],[1,0.5]];portConstraint=eastwest;rotatable=0;whiteSpace=wrap;html=1;fontColor=#333333;" vertex="1" parent="1">
          <mxGeometry x="150" y="-910" width="180" height="20" as="geometry" />
        </mxCell>
        <mxCell id="knpWnB1zfSN1dkLnq7b6-47" value="&lt;font style=&quot;font-size: 10px;&quot;&gt;compara as letras de duas listas&lt;/font&gt;" style="text;strokeColor=#666666;fillColor=#f5f5f5;align=center;verticalAlign=middle;spacingLeft=4;spacingRight=4;overflow=hidden;points=[[0,0.5],[1,0.5]];portConstraint=eastwest;rotatable=0;whiteSpace=wrap;html=1;fontColor=#333333;" vertex="1" parent="1">
          <mxGeometry x="150" y="-890" width="180" height="20" as="geometry" />
        </mxCell>
        <mxCell id="knpWnB1zfSN1dkLnq7b6-48" value="replace_draw" style="text;strokeColor=#666666;fillColor=#f5f5f5;align=center;verticalAlign=middle;spacingLeft=4;spacingRight=4;overflow=hidden;points=[[0,0.5],[1,0.5]];portConstraint=eastwest;rotatable=0;whiteSpace=wrap;html=1;fontColor=#333333;" vertex="1" parent="1">
          <mxGeometry x="40" y="-870" width="110" height="20" as="geometry" />
        </mxCell>
        <mxCell id="knpWnB1zfSN1dkLnq7b6-49" value="&lt;font style=&quot;font-size: 10px;&quot;&gt;reemplaza o &quot;_&quot; pela letra&lt;/font&gt;" style="text;strokeColor=#666666;fillColor=#f5f5f5;align=center;verticalAlign=middle;spacingLeft=4;spacingRight=4;overflow=hidden;points=[[0,0.5],[1,0.5]];portConstraint=eastwest;rotatable=0;whiteSpace=wrap;html=1;fontColor=#333333;" vertex="1" parent="1">
          <mxGeometry x="150" y="-870" width="180" height="20" as="geometry" />
        </mxCell>
        <mxCell id="knpWnB1zfSN1dkLnq7b6-58" value="" style="edgeStyle=orthogonalEdgeStyle;rounded=0;orthogonalLoop=1;jettySize=auto;html=1;endSize=6;startSize=6;jumpSize=6;strokeWidth=1;entryX=0.5;entryY=0;entryDx=0;entryDy=0;" edge="1" parent="1">
          <mxGeometry relative="1" as="geometry">
            <mxPoint x="532.0344827586207" y="-940.0000000000001" as="sourcePoint" />
            <mxPoint x="532" y="-920" as="targetPoint" />
          </mxGeometry>
        </mxCell>
        <mxCell id="knpWnB1zfSN1dkLnq7b6-60" value="" style="edgeStyle=orthogonalEdgeStyle;rounded=0;orthogonalLoop=1;jettySize=auto;html=1;" edge="1" parent="1">
          <mxGeometry relative="1" as="geometry">
            <mxPoint x="532.0344827586207" y="-859.9999999999999" as="sourcePoint" />
            <mxPoint x="532.0344827586207" y="-829.9999999999999" as="targetPoint" />
          </mxGeometry>
        </mxCell>
        <mxCell id="knpWnB1zfSN1dkLnq7b6-62" value="&lt;b&gt;Função Random Choose&lt;/b&gt;&lt;br&gt;chosen_word&amp;nbsp;" style="rounded=0;whiteSpace=wrap;html=1;" vertex="1" parent="1">
          <mxGeometry x="472" y="-1000" width="120" height="60" as="geometry" />
        </mxCell>
        <mxCell id="knpWnB1zfSN1dkLnq7b6-63" value="&lt;div style=&quot;&quot;&gt;Transforma chosen_word para&lt;/div&gt;&lt;div style=&quot;&quot;&gt;&lt;span style=&quot;background-color: initial;&quot;&gt;draw_word&lt;/span&gt;&lt;/div&gt;" style="rounded=0;whiteSpace=wrap;html=1;align=center;" vertex="1" parent="1">
          <mxGeometry x="472" y="-920" width="120" height="60" as="geometry" />
        </mxCell>
        <mxCell id="knpWnB1zfSN1dkLnq7b6-88" value="" style="edgeStyle=orthogonalEdgeStyle;rounded=0;orthogonalLoop=1;jettySize=auto;html=1;entryX=0.46;entryY=-0.009;entryDx=0;entryDy=0;entryPerimeter=0;" edge="1" parent="1" source="knpWnB1zfSN1dkLnq7b6-64">
          <mxGeometry relative="1" as="geometry">
            <mxPoint x="715.2" y="-660.36" as="targetPoint" />
          </mxGeometry>
        </mxCell>
        <mxCell id="knpWnB1zfSN1dkLnq7b6-64" value="guess = &quot;Ingresse uma letra&quot;" style="shape=parallelogram;perimeter=parallelogramPerimeter;whiteSpace=wrap;html=1;fixedSize=1;align=center;" vertex="1" parent="1">
          <mxGeometry x="640" y="-730" width="150" height="50" as="geometry" />
        </mxCell>
        <mxCell id="knpWnB1zfSN1dkLnq7b6-85" value="" style="edgeStyle=orthogonalEdgeStyle;rounded=0;orthogonalLoop=1;jettySize=auto;html=1;entryX=0.5;entryY=0;entryDx=0;entryDy=0;" edge="1" parent="1" source="knpWnB1zfSN1dkLnq7b6-65" target="knpWnB1zfSN1dkLnq7b6-64">
          <mxGeometry relative="1" as="geometry" />
        </mxCell>
        <mxCell id="knpWnB1zfSN1dkLnq7b6-108" value="" style="edgeStyle=orthogonalEdgeStyle;rounded=0;orthogonalLoop=1;jettySize=auto;html=1;entryX=0;entryY=0.5;entryDx=0;entryDy=0;exitX=0;exitY=0.5;exitDx=0;exitDy=0;" edge="1" parent="1" source="knpWnB1zfSN1dkLnq7b6-65" target="knpWnB1zfSN1dkLnq7b6-101">
          <mxGeometry relative="1" as="geometry">
            <Array as="points">
              <mxPoint x="400" y="-750" />
              <mxPoint x="400" y="-440" />
            </Array>
          </mxGeometry>
        </mxCell>
        <mxCell id="knpWnB1zfSN1dkLnq7b6-65" value="if cont &amp;lt;=5:&lt;br&gt;" style="rhombus;whiteSpace=wrap;html=1;" vertex="1" parent="1">
          <mxGeometry x="437" y="-780" width="190" height="60" as="geometry" />
        </mxCell>
        <mxCell id="knpWnB1zfSN1dkLnq7b6-70" value="True" style="text;html=1;strokeColor=none;fillColor=none;align=center;verticalAlign=middle;whiteSpace=wrap;rounded=0;" vertex="1" parent="1">
          <mxGeometry x="640" y="-770" width="52.97" height="30" as="geometry" />
        </mxCell>
        <mxCell id="knpWnB1zfSN1dkLnq7b6-73" value="" style="edgeStyle=orthogonalEdgeStyle;rounded=0;orthogonalLoop=1;jettySize=auto;html=1;" edge="1" parent="1" target="knpWnB1zfSN1dkLnq7b6-72">
          <mxGeometry relative="1" as="geometry">
            <mxPoint x="715.0344827586207" y="-550" as="sourcePoint" />
          </mxGeometry>
        </mxCell>
        <mxCell id="knpWnB1zfSN1dkLnq7b6-71" value="replace_draw" style="whiteSpace=wrap;html=1;" vertex="1" parent="1">
          <mxGeometry x="655" y="-584" width="120" height="44" as="geometry" />
        </mxCell>
        <mxCell id="knpWnB1zfSN1dkLnq7b6-99" value="" style="edgeStyle=orthogonalEdgeStyle;rounded=0;orthogonalLoop=1;jettySize=auto;html=1;entryX=0.5;entryY=0;entryDx=0;entryDy=0;" edge="1" parent="1" source="knpWnB1zfSN1dkLnq7b6-72" target="knpWnB1zfSN1dkLnq7b6-101">
          <mxGeometry relative="1" as="geometry">
            <mxPoint x="592" y="-490" as="targetPoint" />
          </mxGeometry>
        </mxCell>
        <mxCell id="knpWnB1zfSN1dkLnq7b6-72" value="draw_word = chosen_word" style="rhombus;whiteSpace=wrap;html=1;" vertex="1" parent="1">
          <mxGeometry x="630" y="-520" width="170" height="60" as="geometry" />
        </mxCell>
        <mxCell id="knpWnB1zfSN1dkLnq7b6-97" value="" style="edgeStyle=orthogonalEdgeStyle;rounded=0;orthogonalLoop=1;jettySize=auto;html=1;" edge="1" parent="1" source="knpWnB1zfSN1dkLnq7b6-77" target="knpWnB1zfSN1dkLnq7b6-65">
          <mxGeometry relative="1" as="geometry" />
        </mxCell>
        <mxCell id="knpWnB1zfSN1dkLnq7b6-77" value="cont += 1" style="whiteSpace=wrap;html=1;" vertex="1" parent="1">
          <mxGeometry x="472" y="-656.5" width="120" height="34" as="geometry" />
        </mxCell>
        <mxCell id="knpWnB1zfSN1dkLnq7b6-81" value="False" style="text;html=1;strokeColor=none;fillColor=none;align=center;verticalAlign=middle;whiteSpace=wrap;rounded=0;" vertex="1" parent="1">
          <mxGeometry x="595" y="-660" width="60" height="30" as="geometry" />
        </mxCell>
        <mxCell id="knpWnB1zfSN1dkLnq7b6-84" value="" style="edgeStyle=orthogonalEdgeStyle;rounded=0;orthogonalLoop=1;jettySize=auto;html=1;" edge="1" parent="1" source="knpWnB1zfSN1dkLnq7b6-83" target="knpWnB1zfSN1dkLnq7b6-65">
          <mxGeometry relative="1" as="geometry" />
        </mxCell>
        <mxCell id="knpWnB1zfSN1dkLnq7b6-83" value="cont = 0" style="whiteSpace=wrap;html=1;" vertex="1" parent="1">
          <mxGeometry x="472" y="-830" width="120" height="30" as="geometry" />
        </mxCell>
        <mxCell id="knpWnB1zfSN1dkLnq7b6-94" value="" style="edgeStyle=orthogonalEdgeStyle;rounded=0;orthogonalLoop=1;jettySize=auto;html=1;entryX=0.5;entryY=0;entryDx=0;entryDy=0;" edge="1" parent="1" source="knpWnB1zfSN1dkLnq7b6-89" target="knpWnB1zfSN1dkLnq7b6-71">
          <mxGeometry relative="1" as="geometry" />
        </mxCell>
        <mxCell id="knpWnB1zfSN1dkLnq7b6-96" value="" style="edgeStyle=orthogonalEdgeStyle;rounded=0;orthogonalLoop=1;jettySize=auto;html=1;entryX=1;entryY=0.5;entryDx=0;entryDy=0;" edge="1" parent="1" source="knpWnB1zfSN1dkLnq7b6-89" target="knpWnB1zfSN1dkLnq7b6-77">
          <mxGeometry relative="1" as="geometry">
            <mxPoint x="590" y="-620" as="targetPoint" />
          </mxGeometry>
        </mxCell>
        <mxCell id="knpWnB1zfSN1dkLnq7b6-89" value="check_letters" style="rhombus;whiteSpace=wrap;html=1;" vertex="1" parent="1">
          <mxGeometry x="650" y="-659" width="130" height="39" as="geometry" />
        </mxCell>
        <mxCell id="knpWnB1zfSN1dkLnq7b6-95" value="True" style="text;html=1;strokeColor=none;fillColor=none;align=center;verticalAlign=middle;whiteSpace=wrap;rounded=0;" vertex="1" parent="1">
          <mxGeometry x="700" y="-620" width="60" height="30" as="geometry" />
        </mxCell>
        <mxCell id="knpWnB1zfSN1dkLnq7b6-100" value="True" style="text;html=1;strokeColor=none;fillColor=none;align=center;verticalAlign=middle;whiteSpace=wrap;rounded=0;" vertex="1" parent="1">
          <mxGeometry x="560" y="-520" width="60" height="30" as="geometry" />
        </mxCell>
        <mxCell id="knpWnB1zfSN1dkLnq7b6-101" value="&lt;b&gt;END&lt;/b&gt;" style="rounded=1;whiteSpace=wrap;html=1;" vertex="1" parent="1">
          <mxGeometry x="472" y="-470" width="120" height="60" as="geometry" />
        </mxCell>
        <mxCell id="knpWnB1zfSN1dkLnq7b6-104" value="" style="endArrow=classic;html=1;rounded=0;entryX=0.969;entryY=0.378;entryDx=0;entryDy=0;entryPerimeter=0;" edge="1" parent="1" target="knpWnB1zfSN1dkLnq7b6-64">
          <mxGeometry width="50" height="50" relative="1" as="geometry">
            <mxPoint x="860" y="-710" as="sourcePoint" />
            <mxPoint x="820" y="-570" as="targetPoint" />
          </mxGeometry>
        </mxCell>
        <mxCell id="knpWnB1zfSN1dkLnq7b6-105" value="" style="endArrow=none;html=1;rounded=0;" edge="1" parent="1">
          <mxGeometry width="50" height="50" relative="1" as="geometry">
            <mxPoint x="860" y="-490" as="sourcePoint" />
            <mxPoint x="860" y="-710" as="targetPoint" />
          </mxGeometry>
        </mxCell>
        <mxCell id="knpWnB1zfSN1dkLnq7b6-106" value="" style="endArrow=none;html=1;rounded=0;exitX=1;exitY=0.5;exitDx=0;exitDy=0;" edge="1" parent="1" source="knpWnB1zfSN1dkLnq7b6-72">
          <mxGeometry width="50" height="50" relative="1" as="geometry">
            <mxPoint x="770" y="-670" as="sourcePoint" />
            <mxPoint x="860" y="-490" as="targetPoint" />
          </mxGeometry>
        </mxCell>
        <mxCell id="knpWnB1zfSN1dkLnq7b6-107" value="False" style="text;html=1;strokeColor=none;fillColor=none;align=center;verticalAlign=middle;whiteSpace=wrap;rounded=0;" vertex="1" parent="1">
          <mxGeometry x="800" y="-510" width="60" height="30" as="geometry" />
        </mxCell>
        <mxCell id="knpWnB1zfSN1dkLnq7b6-109" value="False" style="text;html=1;strokeColor=none;fillColor=none;align=center;verticalAlign=middle;whiteSpace=wrap;rounded=0;" vertex="1" parent="1">
          <mxGeometry x="340" y="-622.5" width="60" height="30" as="geometry" />
        </mxCell>
      </root>
    </mxGraphModel>
  </diagram>
</mxfile>
